<svg xmlns="http://www.w3.org/2000/svg" xmlns:xlink="http://www.w3.org/1999/xlink" viewBox="0 0 190 116.14"><defs><linearGradient id="a" x1="119.54" y1="9.33" x2="60.84" y2="68.03" gradientUnits="userSpaceOnUse"><stop offset="0" stop-color="#00b3ff"/><stop offset="0.5" stop-color="#6e4ad7"/><stop offset="1" stop-color="#e6007e"/></linearGradient></defs><path d="M156.73,20.82C155.69,0,131-1.91,113.44,1.17c-17.85,3.13-57.29,12-70.8,16.15h0c-20.37,6.05-21.88,18.38-5.12,26.21,17.41,8.61,56.25,29.12,77.56,32.17,8.43,1.21,15.35-.29,19.41-6.47C137.31,65,158,30.94,156.73,20.82Zm-122,3.53c11.88-6.92,26.78-7.61,42.13-3-4.78,7.64-4.68,18.29-.33,28.86-10.61-.47-64-11.62-41.86-25.81Zm97,35A41.07,41.07,0,0,0,126.52,51a67.7,67.7,0,0,0,21.41-12.95c-5.23,10.84-12.55,23.5-15.32,28A11.46,11.46,0,0,0,131.76,59.33ZM78.2,53.7a36.54,36.54,0,0,0,6.59,8.64c-7.53-3.19-16.22-7.15-25.49-11.62A174.55,174.55,0,0,0,78.2,53.7Zm1.89-31.35c18.53,7.75,21.21,9,40.64,27-13.16,3.06-26,2.28-40.39,1.22C75.63,40.79,75.15,29.41,80.09,22.35Zm8.48-12.09a37.71,37.71,0,0,0-9.71,8.2A75.64,75.64,0,0,0,63.64,15.4c5.73-1.3,16.33-3.72,26.3-5.94C89.43,9.74,89,10,88.57,10.26Zm23.65,44a54.74,54.74,0,0,0,10.93-2.1C148,84.14,91,72.77,82,53.94A185,185,0,0,0,112.22,54.22Zm12-5.92c-3.48-4.71-19-17-21.3-18h0A86.06,86.06,0,0,0,82.22,19.57C93.74,7.77,120.33.05,139.4,5.23A20.28,20.28,0,0,1,150.77,13C160.18,26.36,144.69,40.4,124.25,48.3Z" fill="url(#a)"/><path d="M25.4,92.23a9.31,9.31,0,0,0-8.08,4.62c-1.45-3.61-4.91-4.53-7.72-4.62h0A9.06,9.06,0,0,0,2,96.42a13.07,13.07,0,0,0-2,6.94v10.76a1.91,1.91,0,0,0,3.81,0v-8a17.07,17.07,0,0,1,.62-6.37A5.34,5.34,0,0,1,9.64,96a5.59,5.59,0,0,1,4.8,2.94c.54.89.82,2.64.82,5.21v10a1.9,1.9,0,0,0,1.9,1.9h0a1.9,1.9,0,0,0,1.91-1.9v-9.84c0-4.07.92-5.12,1.3-5.62A6.22,6.22,0,0,1,25.6,96a4.18,4.18,0,0,1,4.28,2.67,15.8,15.8,0,0,1,.47,4.73v10.74a1.9,1.9,0,0,0,1.91,1.9h.08a1.9,1.9,0,0,0,1.9-1.9V103.38a17.71,17.71,0,0,0-.9-6.44A8.24,8.24,0,0,0,25.4,92.23Z" fill="#000"/><path d="M43.68,93.6a12.13,12.13,0,0,0-5.48,10.34,11.78,11.78,0,0,0,6.54,10.77,11.09,11.09,0,0,0,13.67-2.49c0,1.73-.28,4,2.16,3.91a1.86,1.86,0,0,0,1.87-1.87l0-10.32s.17-6.75-5.44-10.28A12.12,12.12,0,0,0,43.68,93.6Zm2.53,17.59c-4.23-2-6.19-8.72-1.7-13.24a8,8,0,0,1,12.8,1.84C60.59,105.88,54.42,115.17,46.21,111.19Z" fill="#000"/><path d="M67,114.12a1.9,1.9,0,0,0,1.9,1.9h0a1.9,1.9,0,0,0,1.91-1.9V94.71a1.92,1.92,0,1,0-3.83,0Z" fill="#000"/><path d="M87.05,92.23a10.76,10.76,0,0,0-9.11,3.6c-1.08,1.23-1.79,2.68-2,5.85-.07.85-.11,12.44-.11,12.44a1.91,1.91,0,0,0,1.91,1.9h0a1.9,1.9,0,0,0,1.9-1.9s.06-11.3.11-12.82c.14-4.22,4.69-5.07,6.31-5.1,2.2,0,5.34.5,6,3.69a30.32,30.32,0,0,1,.31,5v9.19a1.91,1.91,0,0,0,3.81,0v-10a18.48,18.48,0,0,0-1-6.89S93.51,92.42,87.05,92.23Z" fill="#000"/><path d="M166.48,93c-2.77-1.45-5.43-.5-8,1.7a2,2,0,1,0-3.92-.17v10.88h0V114a2,2,0,0,0,3.9,0V108c.15-5-.13-9,2.85-11a3.48,3.48,0,0,1,3.7-.54,7.3,7.3,0,0,1,2-3.16Z" fill="#000"/><path d="M121.62,108.83a1.85,1.85,0,0,0-1.5.6c-3.79,4.43-12,4-14.87-1.23a8.57,8.57,0,0,1,7.8-12.85,9,9,0,0,1,6.77,2.72,2.15,2.15,0,0,0,1.83,1,1.91,1.91,0,0,0,1.46-2.86,11.88,11.88,0,0,0-1.9-1.94c-8.26-6-21-.9-21,9.85-.1,6.79,5.86,12.15,12.7,12a14.27,14.27,0,0,0,6.35-1.36c1.51-.84,3.9-2.16,4.1-4a1.9,1.9,0,0,0-1.76-1.88" fill="#000"/><path d="M185.48,108.55a15,15,0,0,1-1.59,1.87,8.42,8.42,0,0,1-10.15.7,7.88,7.88,0,0,1-3.45-6.54H188a2.05,2.05,0,0,0,2-2.4c-.67-5.9-4.89-10.48-11.7-10.48A11.83,11.83,0,0,0,166.36,104c0,6.48,5,12.35,12,12.09a11.67,11.67,0,0,0,8.24-3,10.92,10.92,0,0,0,2.4-3.12,1.74,1.74,0,0,0-.15-1.57,1.93,1.93,0,0,0-1.66-.93A2.13,2.13,0,0,0,185.48,108.55ZM173,97.39c3.75-3.57,11.07-2.1,12.75,3a.6.6,0,0,1-.56.81H170.75A8.68,8.68,0,0,1,173,97.39" fill="#000"/><path d="M131.85,93.6a12.11,12.11,0,0,0-5.48,10.34,11.78,11.78,0,0,0,6.53,10.77,11.09,11.09,0,0,0,13.67-2.49c0,1.73-.27,4,2.17,3.91a1.85,1.85,0,0,0,1.86-1.87l0-10.32s.17-6.75-5.44-10.28A12.12,12.12,0,0,0,131.85,93.6Zm2.53,17.59c-4.24-2-6.19-8.72-1.7-13.24a8,8,0,0,1,12.79,1.84C148.76,105.88,142.58,115.17,134.38,111.19Z" fill="#000"/><circle cx="68.93" cy="86.49" r="2.85" fill="#000"/></svg>
